<svg
xmlns="http://www.w3.org/2000/svg"
 version="1.1"
  xmlns:xlink="http://www.w3.org/1999/xlink"
  xmlns:svgjs="http://svgjs.dev/svgjs"
  width="1000"
  height="1000"
  viewBox="0 0 1000 1000">
  <rect  fill="#000000"></rect>
  <g transform="matrix(0.7,0,0,0.7,149.57575757575756,369.37655780803846)">
  <svg
  viewBox="0 0 396 148"
   data-background-color="#ffffff"
   preserveAspectRatio="xMidYMid meet"
    height="373" width="1000"
    xmlns="http://www.w3.org/2000/svg"
     xmlns:xlink="http://www.w3.org/1999/xlink">
     <g id="tight-bounds"
     transform="matrix(1,0,0,1,0.2400000000000091,0.041629430908884046)">
     <svg viewBox="0 0 ><g><sv">
     <g>
     <rect
     width="18.0362064"
     height="200.99999999999997"
      x="209.54319999999998"
      y="0" fill="#ffffff"
      opacity="1" stroke-width="0"
       stroke="transparent" fill-opacity="1"
        class="rect-o-0"
        data-fill-palette-color="primary"
         rx="1%" id="o-0"
         data-palette-color="#fbeaab">
         </rect></g>
         <g
         transform="matrix(1,0,0,1,274.79460639999996,0.4999999999999858)"><svg viewBox="0 0 262.66666666666663 200" height="200" width="262.66666666666663">
         <g id="textblocktransform">
         <svg viewBox="0 0 262.66666666666663 200"
          height="200" width="262.66666666666663"
           id="textblock"><g>
           <svg viewBox="0 0 262.66666666666663
            200" height="200"
            width="262.66666666666663">
            <g transform="matrix(1,0,0,1,0,0)">
            <svg width="262.66666666666663"
            viewBox="3 -37.5 49.25 37.5"
            height="200"
             data-palette-color="#fbeaab">
             <path
             d="M18.6-33.05L18.6-23.8Q19.65-24.6 21.18-24.6 22.7-24.6 23.78-23.55 24.85-22.5 24.85-20.3L24.85-20.3 24.85-4.4Q24.85-2.3 24.2-1.5L24.2-1.5Q22.9 0 20.4 0L20.4 0 3 0 3-3.4 6.15-3.4 6.15-34.15 3.05-34.15 3.05-37.5 13.5-37.5Q18.6-37.5 18.6-33.05L18.6-33.05ZM10.25-18.55L14.55-21.25 14.55-34.15 10.25-34.15 10.25-18.55ZM20.85-3.45L20.85-21.2 10.25-14.55 10.25-3.45 20.85-3.45ZM31.1 0L31.1-3.4 34.25-3.4 34.25-34.1 31.1-34.1 31.1-37.5 41.6-37.5 41.6-34.1 38.35-34.1 38.35-3.4 48.85-3.4 48.85-9.25 52.25-9.25 52.25 0 31.1 0Z" opacity="1" transform="matrix(1,0,0,1,0,0)" fill="#ffffff" class="undefined-text-0" data-fill-palette-color="primary" id="text-0"></path></svg></g></svg></g></svg></g></svg></g><g transform="matrix(1,0,0,1,0,26.201836858006047)"><svg viewBox="0 0 162.32799999999997 148.59632628398788" height="148.59632628398788" width="162.32799999999997"><g><svg xmlns="http://www.w3.org/2000/svg" xmlns:xlink="http://www.w3.org/1999/xlink" version="1.1" x="0" y="0" viewBox="6.0749969482421875 11.965999603271484 82.75 75.75" enable-background="new 0 0 100 100" xml:space="preserve" height="148.59632628398788" width="162.32799999999997" class="icon-icon-0" data-fill-palette-color="accent" id="icon-0"><path d="M82.325 11.966h-69.75c-3.584 0-6.5 2.916-6.5 6.5v62.75c0 3.584 2.916 6.5 6.5 6.5h69.75c3.584 0 6.5-2.916 6.5-6.5v-62.75C88.825 14.882 85.909 11.966 82.325 11.966zM27.7 82.716H12.575c-0.827 0-1.5-0.673-1.5-1.5v-44.75H27.7V82.716zM83.825 81.216c0 0.827-0.673 1.5-1.5 1.5H32.7v-46.25h51.125V81.216zM83.825 31.466h-72.75v-13c0-0.827 0.673-1.5 1.5-1.5h69.75c0.827 0 1.5 0.673 1.5 1.5V31.466zM76.951 20.633c-1.93 0-3.5 1.57-3.5 3.5s1.57 3.5 3.5 3.5 3.5-1.57 3.5-3.5S78.881 20.633 76.951 20.633zM66.951 20.633c-1.93 0-3.5 1.57-3.5 3.5s1.57 3.5 3.5 3.5 3.5-1.57 3.5-3.5S68.881 20.633 66.951 20.633zM56.951 20.633c-1.93 0-3.5 1.57-3.5 3.5s1.57 3.5 3.5 3.5 3.5-1.57 3.5-3.5S58.881 20.633 56.951 20.633z" fill="#ffffff" data-fill-palette-color="accent"></path></svg></g></svg></g></svg></g><defs></defs></svg><rect  fill="none" stroke="none" visibility="hidden"></rect></g></svg></g></svg>
